<svg width="60" height="60" viewBox="0 0 60 60" fill="none" xmlns="http://www.w3.org/2000/svg">
<path d="M55.3125 23.4375H37.8926C39.2789 20.3436 40.3125 17.2751 40.3125 15C40.3125 9.31371 35.6863 4.6875 30 4.6875C24.3137 4.6875 19.6875 9.31371 19.6875 15C19.6875 17.2751 20.7211 20.3436 22.1073 23.4375H4.6875C3.13676 23.4375 1.875 24.6993 1.875 26.25V45C1.875 46.5507 3.13676 47.8125 4.6875 47.8125H9.98367L18.5877 54.695C19.0842 55.0931 19.7082 55.3125 20.3449 55.3125H55.3125C56.8632 55.3125 58.125 54.0507 58.125 52.5V26.25C58.125 24.6993 56.8632 23.4375 55.3125 23.4375ZM30 6.5625C34.6525 6.5625 38.4375 10.3475 38.4375 15C38.4375 20.1189 32.2246 30.3843 30 33.8957C27.7753 30.3843 21.5625 20.1189 21.5625 15C21.5625 10.3475 25.3475 6.5625 30 6.5625ZM29.22 36.1451C29.3938 36.4059 29.6865 36.5625 30 36.5625C30.3135 36.5625 30.6062 36.4058 30.78 36.1451C31.0119 35.7971 34.3518 30.7595 37.0136 25.3125H37.5V53.4375H22.5V25.3125H22.9864C25.6482 30.7594 28.988 35.7971 29.22 36.1451ZM19.7598 53.2316L10.8981 46.1429C10.7319 46.0099 10.5253 45.9375 10.3125 45.9375H4.6875C4.17059 45.9375 3.75 45.5169 3.75 45V26.25C3.75 25.7331 4.17059 25.3125 4.6875 25.3125H20.625V53.4375H20.3449C20.1332 53.4375 19.9257 53.3646 19.7598 53.2316ZM56.25 52.5C56.25 53.0169 55.8294 53.4375 55.3125 53.4375H39.375V25.3125H55.3125C55.8294 25.3125 56.25 25.7331 56.25 26.25V52.5ZM34.6875 15C34.6875 12.4153 32.5847 10.3125 30 10.3125C27.4153 10.3125 25.3125 12.4153 25.3125 15C25.3125 17.5847 27.4153 19.6875 30 19.6875C32.5847 19.6875 34.6875 17.5847 34.6875 15ZM27.1875 15C27.1875 13.4493 28.4493 12.1875 30 12.1875C31.5507 12.1875 32.8125 13.4493 32.8125 15C32.8125 16.5507 31.5507 17.8125 30 17.8125C28.4493 17.8125 27.1875 16.5507 27.1875 15Z" fill="#0068CA"/>
<path d="M12.1538 37.7868C12.4599 37.7868 12.7533 37.6652 12.9697 37.4489C13.1861 37.2325 13.3077 36.939 13.3077 36.633V31.1538C13.3077 30.8478 13.1861 30.5543 12.9697 30.338C12.7533 30.1216 12.4599 30 12.1538 30C11.8478 30 11.5543 30.1216 11.338 30.338C11.1216 30.5543 11 30.8478 11 31.1538V36.6593C11.0069 36.9608 11.1315 37.2475 11.3471 37.4582C11.5628 37.669 11.8523 37.7869 12.1538 37.7868Z" fill="#0068CA"/>
<path d="M30.167 46.7868C30.4662 46.7835 30.7525 46.664 30.9653 46.4537C31.1781 46.2433 31.3009 45.9585 31.3077 45.6593V40.1538C31.3077 39.8478 31.1861 39.5543 30.9697 39.338C30.7534 39.1216 30.4599 39 30.1538 39C29.8478 39 29.5543 39.1216 29.338 39.338C29.1216 39.5543 29 39.8478 29 40.1538V45.6593C29.0069 45.9631 29.1333 46.2518 29.3518 46.4629C29.5703 46.674 29.8633 46.7904 30.167 46.7868Z" fill="#0068CA"/>
<path d="M49.167 39.7868C49.4662 39.7835 49.7525 39.664 49.9653 39.4537C50.1781 39.2433 50.3009 38.9585 50.3077 38.6593V33.1538C50.3077 32.8478 50.1861 32.5543 49.9697 32.338C49.7534 32.1216 49.4599 32 49.1538 32C48.8478 32 48.5543 32.1216 48.338 32.338C48.1216 32.5543 48 32.8478 48 33.1538V38.6593C48.0069 38.9631 48.1333 39.2518 48.3518 39.4629C48.5703 39.674 48.8633 39.7904 49.167 39.7868Z" fill="#0068CA"/>
</svg>
