<svg width="35" height="35" viewBox="0 0 35 35" fill="none" xmlns="http://www.w3.org/2000/svg">
<g clip-path="url(#clip0_175_289)">
<path d="M13.3 21.9327C13.3 22.166 13.3778 22.341 13.5333 22.4577C13.6889 22.5743 13.8444 22.6327 14 22.6327C14.1556 22.6327 14.3111 22.5743 14.4667 22.4577C14.6222 22.341 14.7 22.1855 14.7 21.991C14.7 21.7966 14.6222 21.641 14.4667 21.5243C14.3111 21.4077 14.1556 21.3493 14 21.3493C13.8444 21.3493 13.6889 21.4077 13.5333 21.5243C13.3778 21.641 13.3 21.7771 13.3 21.9327ZM16.8 21.9327C16.8 22.166 16.8778 22.341 17.0333 22.4577C17.1889 22.5743 17.3444 22.6327 17.5 22.6327C17.6556 22.6327 17.8111 22.5743 17.9667 22.4577C18.1222 22.341 18.2 22.1855 18.2 21.991C18.2 21.7966 18.1222 21.641 17.9667 21.5243C17.8111 21.4077 17.6556 21.3493 17.5 21.3493C17.3444 21.3493 17.1889 21.4077 17.0333 21.5243C16.8778 21.641 16.8 21.7771 16.8 21.9327ZM20.3 21.9327C20.3 22.166 20.3778 22.341 20.5333 22.4577C20.6889 22.5743 20.8444 22.6327 21 22.6327C21.1556 22.6327 21.3111 22.5743 21.4667 22.4577C21.6222 22.341 21.7 22.1855 21.7 21.991C21.7 21.7966 21.6222 21.641 21.4667 21.5243C21.3111 21.4077 21.1556 21.3493 21 21.3493C20.8444 21.3493 20.6889 21.4077 20.5333 21.5243C20.3778 21.641 20.3 21.7771 20.3 21.9327ZM6.53333 22.6327C5.6 22.6327 4.74444 22.3799 3.96667 21.8743C3.18889 21.3688 2.625 20.6882 2.275 19.8327C1.925 18.9771 1.84722 18.0827 2.04167 17.1493C2.23611 16.216 2.66389 15.4188 3.325 14.7577C3.98611 14.0966 4.76389 13.6882 5.65833 13.5327C6.55278 13.3771 7.42778 13.4743 8.28333 13.8243C9.13889 14.1743 9.83889 14.7382 10.3833 15.516C10.9278 16.2938 11.2 17.1493 11.2 18.0827C11.2 19.3271 10.7528 20.3966 9.85833 21.291C8.96389 22.1855 7.85556 22.6327 6.53333 22.6327ZM6.53333 14.816C5.91111 14.816 5.32778 14.991 4.78333 15.341C4.23889 15.691 3.83056 16.1771 3.55833 16.7993C3.28611 17.4216 3.22778 18.0632 3.38333 18.7243C3.53889 19.3855 3.85 19.9299 4.31667 20.3577C4.78333 20.7855 5.32778 21.0771 5.95 21.2327C6.57222 21.3882 7.19444 21.3299 7.81667 21.0577C8.43889 20.7855 8.925 20.3771 9.275 19.8327C9.625 19.2882 9.8 18.7049 9.8 18.0827C9.8 17.1493 9.48889 16.3716 8.86667 15.7493C8.24444 15.1271 7.46667 14.816 6.53333 14.816ZM12.4833 30.916H0.7C0.466667 30.916 0.291667 30.8577 0.175 30.741C0.0583333 30.6243 0 30.4493 0 30.216V27.8827C0 26.0938 0.641667 24.5577 1.925 23.2743C3.20833 21.991 4.76389 21.3493 6.59167 21.3493C8.41944 21.3493 9.95556 21.991 11.2 23.2743C12.4444 24.5577 13.1056 26.0938 13.1833 27.8827V30.216C13.1833 30.4493 13.1056 30.6243 12.95 30.741C12.7944 30.8577 12.6389 30.916 12.4833 30.916ZM1.4 29.516H11.7833V27.8827C11.7833 26.4827 11.2778 25.2771 10.2667 24.266C9.25556 23.2549 8.03056 22.7493 6.59167 22.7493C5.15278 22.7493 3.92778 23.2549 2.91667 24.266C1.90556 25.2771 1.4 26.4827 1.4 27.8827V29.516ZM28.4667 22.6327C27.5333 22.6327 26.6778 22.3799 25.9 21.8743C25.1222 21.3688 24.5583 20.6882 24.2083 19.8327C23.8583 18.9771 23.7611 18.0827 23.9167 17.1493C24.0722 16.216 24.4806 15.4188 25.1417 14.7577C25.8028 14.0966 26.6 13.6882 27.5333 13.5327C28.4667 13.3771 29.3611 13.4743 30.2167 13.8243C31.0722 14.1743 31.7528 14.7382 32.2583 15.516C32.7639 16.2938 33.0167 17.1493 33.0167 18.0827C33.0167 19.3271 32.5694 20.3966 31.675 21.291C30.7806 22.1855 29.7111 22.6327 28.4667 22.6327ZM28.4667 14.816C27.7667 14.816 27.1444 14.991 26.6 15.341C26.0556 15.691 25.6667 16.1771 25.4333 16.7993C25.2 17.4216 25.1417 18.0632 25.2583 18.7243C25.375 19.3855 25.6667 19.9299 26.1333 20.3577C26.6 20.7855 27.1639 21.0771 27.825 21.2327C28.4861 21.3882 29.1083 21.3299 29.6917 21.0577C30.275 20.7855 30.7417 20.3771 31.0917 19.8327C31.4417 19.2882 31.6167 18.7049 31.6167 18.0827C31.6167 17.1493 31.3056 16.3716 30.6833 15.7493C30.0611 15.1271 29.3222 14.816 28.4667 14.816ZM34.3 30.916H22.5167C22.3611 30.916 22.2056 30.8577 22.05 30.741C21.8944 30.6243 21.8167 30.4493 21.8167 30.216V27.8827C21.8944 26.0938 22.5556 24.5577 23.8 23.2743C25.0444 21.991 26.5806 21.3493 28.4083 21.3493C30.2361 21.3493 31.7917 21.991 33.075 23.2743C34.3583 24.5577 35 26.0938 35 27.8827V30.216C35 30.4493 34.9417 30.6243 34.825 30.741C34.7083 30.8577 34.5333 30.916 34.3 30.916ZM23.2167 29.516H33.6V27.8827C33.6 26.4827 33.0944 25.2771 32.0833 24.266C31.0722 23.2549 29.8472 22.7493 28.4083 22.7493C26.9694 22.7493 25.7444 23.2549 24.7333 24.266C23.7222 25.2771 23.2167 26.4827 23.2167 27.8827V29.516ZM14.35 17.8493C14.1944 17.8493 14.0389 17.791 13.8833 17.6743C13.7278 17.5577 13.65 17.4216 13.65 17.266V15.166H13.0667C12.4444 15.166 11.9 14.9521 11.4333 14.5243C10.9667 14.0966 10.7333 13.5716 10.7333 12.9493V6.29935C10.7333 5.67713 10.9667 5.15213 11.4333 4.72435C11.9 4.29657 12.4444 4.08268 13.0667 4.08268H21.8167C22.4389 4.08268 22.9639 4.29657 23.3917 4.72435C23.8194 5.15213 24.0333 5.67713 24.0333 6.29935V12.9493C24.0333 13.5716 23.8194 14.0966 23.3917 14.5243C22.9639 14.9521 22.4389 15.166 21.8167 15.166H17.3833L14.8167 17.7327C14.7389 17.8882 14.5833 17.9271 14.35 17.8493ZM13.0667 5.48268C12.8333 5.48268 12.6194 5.56046 12.425 5.71601C12.2306 5.87157 12.1333 6.06602 12.1333 6.29935V12.9493C12.1333 13.1827 12.2306 13.3966 12.425 13.591C12.6194 13.7855 12.8333 13.8827 13.0667 13.8827H14.35C14.5833 13.8827 14.7583 13.941 14.875 14.0577C14.9917 14.1743 15.05 14.3105 15.05 14.466V15.516L16.5667 13.9993C16.7222 13.9216 16.8778 13.8827 17.0333 13.8827H21.8167C22.05 13.8827 22.2639 13.7855 22.4583 13.591C22.6528 13.3966 22.75 13.1827 22.75 12.9493V6.29935C22.75 6.06602 22.6528 5.87157 22.4583 5.71601C22.2639 5.56046 22.05 5.48268 21.8167 5.48268H13.0667Z" fill="white"/>
</g>
<defs>
<clipPath id="clip0_175_289">
<rect width="35" height="35" fill="white" transform="matrix(1 0 0 -1 0 35)"/>
</clipPath>
</defs>
</svg>
