<svg width="60" height="60" viewBox="0 0 60 60" fill="none" xmlns="http://www.w3.org/2000/svg">
<g clip-path="url(#clip0_175_185)">
<path d="M58.7109 57.5389H55.7812V50.2786C58.1855 49.3245 59.8828 45.4594 59.8828 40.5467C59.8828 34.868 57.6157 30.5858 54.6094 30.5858C51.603 30.5858 49.3359 34.868 49.3359 40.5467C49.3359 45.4594 51.0333 49.3245 53.4375 50.2786V57.5389H46.9922V29.7312C47.4087 29.8862 47.8954 29.7975 48.23 29.4629L52.3732 25.3197C52.8308 24.8621 52.8308 24.1201 52.3732 23.6623L29.1714 0.460269C28.7136 0.00276855 27.9716 0.00288573 27.514 0.460269L23.3709 4.60343C22.9133 5.06105 22.9133 5.80308 23.3709 6.26082L24.1993 7.08921L7.62645 23.6622C7.16883 24.1198 7.16883 24.8619 7.62645 25.3196L11.7701 29.4632C12.1049 29.7979 12.5913 29.8868 13.0078 29.7318V31.1144L0.659883 38.9722C0.321914 39.1873 0.117188 39.5602 0.117188 39.9608V44.6483C0.117188 45.4232 0.854883 45.9814 1.59738 45.7788L2.27355 45.5944V58.7108C2.27355 59.3579 2.79832 59.8827 3.44543 59.8827H58.7111C59.3582 59.8827 59.8829 59.3579 59.8829 58.7108C59.8829 58.0637 59.358 57.5389 58.7109 57.5389ZM51.6797 40.5467C51.6797 35.8968 53.4149 32.9295 54.6094 32.9295C55.8039 32.9295 57.5391 35.8968 57.5391 40.5467C57.5391 43.7871 56.6964 46.2087 55.7812 47.3802V42.3045C55.7812 41.6574 55.2565 41.1327 54.6094 41.1327C53.9623 41.1327 53.4375 41.6574 53.4375 42.3045V47.3802C52.5224 46.2087 51.6797 43.7871 51.6797 40.5467ZM35.2734 43.4764H24.7266C24.0795 43.4764 23.5547 44.0012 23.5547 44.6483V52.8514H15.3516C15.3516 52.2228 15.3516 31.0562 15.3516 27.5391L30.0005 12.8903L44.6484 27.5385V52.8515H36.4453V44.6484C36.4453 44.0012 35.9205 43.4764 35.2734 43.4764ZM15.3516 57.5389V55.1952H23.5547V57.5389H15.3516ZM28.3426 2.94628L49.8873 24.491L47.4014 26.9769L25.8568 5.43218L28.3426 2.94628ZM10.1125 24.491L25.8567 8.7466L28.3432 11.2331L12.5988 26.9772L10.1125 24.491ZM2.46094 40.6041L13.0078 33.8926V40.2378L2.46094 43.1142V40.6041ZM4.61719 49.3358H8.13281V52.8514H4.61719V49.3358ZM4.61719 55.1952H9.30469C9.9518 55.1952 10.4766 54.6704 10.4766 54.0233V48.1639C10.4766 47.5168 9.9518 46.992 9.30469 46.992H4.61719V44.9552L13.0078 42.6669V57.5389H4.61719V55.1952ZM25.8984 57.5389V45.8202H34.1016V57.5389H25.8984ZM36.4453 57.5389V55.1952H44.6484V57.5389C42.4322 57.5389 37.905 57.5389 36.4453 57.5389Z" fill="#0068CA"/>
<path d="M21.7969 37.6172H20.625C19.9779 37.6172 19.4531 38.142 19.4531 38.7891C19.4531 39.4362 19.9779 39.9609 20.625 39.9609H21.7969C22.444 39.9609 22.9688 39.4362 22.9688 38.7891C22.9688 38.142 22.444 37.6172 21.7969 37.6172Z" fill="#0068CA"/>
<path d="M27.6562 37.6172H26.4844C25.8373 37.6172 25.3125 38.142 25.3125 38.7891C25.3125 39.4362 25.8373 39.9609 26.4844 39.9609H27.6562C28.3034 39.9609 28.8281 39.4362 28.8281 38.7891C28.8281 38.142 28.3034 37.6172 27.6562 37.6172Z" fill="#0068CA"/>
<path d="M33.5156 37.6172H32.3438C31.6966 37.6172 31.1719 38.142 31.1719 38.7891C31.1719 39.4362 31.6966 39.9609 32.3438 39.9609H33.5156C34.1627 39.9609 34.6875 39.4362 34.6875 38.7891C34.6875 38.142 34.1627 37.6172 33.5156 37.6172Z" fill="#0068CA"/>
<path d="M38.2031 39.9609H39.375C40.0221 39.9609 40.5469 39.4362 40.5469 38.7891C40.5469 38.142 40.0221 37.6172 39.375 37.6172H38.2031C37.556 37.6172 37.0312 38.142 37.0312 38.7891C37.0312 39.4362 37.556 39.9609 38.2031 39.9609Z" fill="#0068CA"/>
<path d="M26.1538 30.5876C26.4599 30.5876 26.7533 30.466 26.9697 30.2496C27.1861 30.0333 27.3077 29.7398 27.3077 29.4337V23.9546C27.3077 23.6486 27.1861 23.3551 26.9697 23.1387C26.7533 22.9223 26.4599 22.8008 26.1538 22.8008C25.8478 22.8008 25.5543 22.9223 25.338 23.1387C25.1216 23.3551 25 23.6486 25 23.9546V29.4601C25.0069 29.7615 25.1315 30.0483 25.3471 30.259C25.5628 30.4697 25.8523 30.5877 26.1538 30.5876Z" fill="#0068CA"/>
<path d="M34.3365 30.5876C34.6357 30.5843 34.9219 30.4648 35.1347 30.2544C35.3475 30.0441 35.4703 29.7593 35.4771 29.4601V23.9546C35.4771 23.6486 35.3556 23.3551 35.1392 23.1387C34.9228 22.9223 34.6293 22.8008 34.3233 22.8008C34.0173 22.8008 33.7238 22.9223 33.5074 23.1387C33.291 23.3551 33.1694 23.6486 33.1694 23.9546V29.4601C33.1764 29.7638 33.3028 30.0526 33.5213 30.2637C33.7398 30.4747 34.0327 30.5911 34.3365 30.5876Z" fill="#0068CA"/>
</g>
<defs>
<clipPath id="clip0_175_185">
<rect width="60" height="60" fill="white"/>
</clipPath>
</defs>
</svg>
