<svg width="35" height="35" viewBox="0 0 35 35" fill="none" xmlns="http://www.w3.org/2000/svg">
<g clip-path="url(#clip0_175_294)">
<path d="M18.4335 21.2333C18.2001 21.2333 18.0057 21.1556 17.8501 21C16.839 20.0667 16.3724 18.9389 16.4501 17.6167C16.4501 16.6056 16.6835 15.6722 17.1501 14.8167C17.2279 14.5833 17.364 14.4472 17.5585 14.4083C17.7529 14.3694 17.9474 14.4083 18.1418 14.525C18.3362 14.6417 18.4529 14.7972 18.4918 14.9917C18.5307 15.1861 18.5112 15.3611 18.4335 15.5167C18.1224 15.9056 17.9279 16.45 17.8501 17.15C17.6946 18.2389 18.0446 19.1722 18.9001 19.95C19.1335 20.1833 19.1918 20.4556 19.0751 20.7667C18.9585 21.0778 18.7057 21.2333 18.3168 21.2333H18.4335ZM5.48346 24.3833C4.62791 24.3056 3.88902 23.9556 3.2668 23.3333C2.5668 22.6333 2.2168 21.7583 2.2168 20.7083C2.2168 19.6583 2.5668 18.7833 3.2668 18.0833L10.6168 10.6167C10.9279 10.3833 11.2001 10.1889 11.4335 10.0333C11.6668 9.87778 11.8807 9.83889 12.0751 9.91667C12.2696 9.99444 12.4057 10.1111 12.4835 10.2667C12.5612 10.4222 12.5807 10.5972 12.5418 10.7917C12.5029 10.9861 12.3862 11.1417 12.1918 11.2583C11.9974 11.375 11.8224 11.5111 11.6668 11.6667L4.3168 19.1333C3.85013 19.5222 3.6168 20.0472 3.6168 20.7083C3.6168 21.3694 3.85013 21.8944 4.3168 22.2833C4.55013 22.5944 4.86124 22.7889 5.25013 22.8667L7.4668 20.65C7.62235 20.4944 7.8168 20.4167 8.05013 20.4167L9.10013 20.65L9.68346 20.0667V18.2C9.68346 18.0444 9.76124 17.8889 9.9168 17.7333C10.0724 17.5778 10.2279 17.5 10.3835 17.5L12.3668 17.3833L14.9335 14.8167L15.1668 14.5833C15.2446 14.4278 15.3807 14.3306 15.5751 14.2917C15.7696 14.2528 15.964 14.2917 16.1585 14.4083C16.3529 14.525 16.4696 14.6806 16.5085 14.875C16.5474 15.0694 16.489 15.2444 16.3335 15.4L15.9835 15.8667L13.1835 18.6667C13.0279 18.8222 12.8724 18.9 12.7168 18.9H11.2001V20.4167C11.2001 20.65 11.1224 20.8056 10.9668 20.8833L9.9168 22.05C9.76124 22.2056 9.5668 22.2444 9.33346 22.1667L8.28346 22.05L6.0668 24.2667C5.91124 24.3444 5.7168 24.3833 5.48346 24.3833ZM18.6668 15.9833C17.2668 15.9833 15.964 15.6722 14.7585 15.05C13.5529 14.4278 12.5612 13.5528 11.7835 12.425C11.0057 11.2972 10.5585 10.0333 10.4418 8.63333C10.3251 7.23333 10.539 5.91111 11.0835 4.66667C11.6279 3.42222 12.4446 2.39167 13.5335 1.575C14.6224 0.758331 15.8668 0.233334 17.2668 0C17.5001 -0.0777779 17.714 0 17.9085 0.233334C18.1029 0.466667 18.1612 0.719444 18.0835 0.991665C18.0057 1.26389 17.8112 1.43889 17.5001 1.51667C15.789 1.75 14.4085 2.56667 13.3585 3.96667C12.3085 5.36667 11.9001 6.94167 12.1335 8.69167C12.3668 10.4417 13.1446 11.8611 14.4668 12.95C15.789 14.0389 17.3057 14.5444 19.0168 14.4667C20.7279 14.3889 22.1862 13.7083 23.3918 12.425C24.5974 11.1417 25.2001 9.64444 25.2001 7.93333C25.2001 6.84444 24.9668 5.83333 24.5001 4.9C24.0335 3.96667 23.3335 3.18889 22.4001 2.56667C22.2446 2.41111 22.1668 2.23611 22.1668 2.04167C22.1668 1.84722 22.2251 1.67222 22.3418 1.51667C22.4585 1.36111 22.614 1.26389 22.8085 1.225C23.0029 1.18611 23.1779 1.24445 23.3335 1.4C24.7335 2.41111 25.7251 3.73333 26.3085 5.36667C26.8918 7 26.9112 8.65278 26.3668 10.325C25.8224 11.9972 24.8501 13.3583 23.4501 14.4083C22.0501 15.4583 20.4557 15.9833 18.6668 15.9833ZM20.3001 1.51667C20.2224 1.51667 20.1251 1.49722 20.0085 1.45833C19.8918 1.41945 19.7751 1.32222 19.6585 1.16667C19.5418 1.01111 19.5029 0.816666 19.5418 0.583332C19.5807 0.349998 19.7362 0.174999 20.0085 0.0583344C20.2807 -0.0583344 20.5335 -0.0194435 20.7668 0.174999C21.0001 0.369446 21.0779 0.583332 21.0001 0.816666C20.9224 1.05 20.8251 1.225 20.7085 1.34167C20.5918 1.45833 20.4168 1.51667 20.1835 1.51667H20.3001ZM19.7168 9.33333C18.8612 9.33333 18.1612 9.06111 17.6168 8.51667C17.0724 7.97222 16.8001 7.29167 16.8001 6.475C16.8001 5.65833 17.0724 4.95833 17.6168 4.375C18.1612 3.79167 18.8418 3.5 19.6585 3.5C20.4751 3.5 21.1751 3.79167 21.7585 4.375C22.3418 4.95833 22.6335 5.65833 22.6335 6.475C22.6335 7.29167 22.3418 7.97222 21.7585 8.51667C21.1751 9.06111 20.4946 9.33333 19.7168 9.33333ZM19.7168 5.01667C19.3279 5.01667 18.9779 5.15278 18.6668 5.425C18.3557 5.69722 18.2001 6.02778 18.2001 6.41667C18.2001 6.80556 18.3557 7.15556 18.6668 7.46667C18.9779 7.77778 19.3279 7.93333 19.7168 7.93333C20.1057 7.93333 20.4362 7.77778 20.7085 7.46667C20.9807 7.15556 21.1168 6.80556 21.1168 6.41667C21.1168 6.02778 20.9807 5.69722 20.7085 5.425C20.4362 5.15278 20.1057 5.01667 19.7168 5.01667ZM29.1668 35C29.0112 35 28.8557 34.9222 28.7001 34.7667C28.5446 34.6111 28.4668 34.4556 28.4668 34.3V26.0167V25.6667C28.389 25.4333 28.4279 25.2194 28.5835 25.025C28.739 24.8306 28.9335 24.7722 29.1668 24.85H29.9835L22.1668 18.4333L14.2335 24.7333H15.0501C15.3612 24.7333 15.5751 24.8306 15.6918 25.025C15.8085 25.2194 15.8668 25.4333 15.8668 25.6667L15.7501 26.0167V34.3C15.7501 34.4556 15.6918 34.6111 15.5751 34.7667C15.4585 34.9222 15.2835 35 15.0501 35C14.8168 35 14.6418 34.9222 14.5251 34.7667C14.4085 34.6111 14.3501 34.4556 14.3501 34.3V26.25H12.1335C11.8224 26.25 11.6085 26.0944 11.4918 25.7833C11.3751 25.4722 11.4335 25.2 11.6668 24.9667L21.7001 16.9167C21.7779 16.8389 21.914 16.8 22.1085 16.8C22.3029 16.8 22.4779 16.8389 22.6335 16.9167L32.5501 24.9667C32.7835 25.2 32.8418 25.4722 32.7251 25.7833C32.6085 26.0944 32.3946 26.25 32.0835 26.25H29.9835V34.3C29.9835 34.4556 29.9057 34.6111 29.7501 34.7667C29.5946 34.9222 29.4001 35 29.1668 35ZM22.1668 23.45C22.0112 23.45 21.8557 23.3722 21.7001 23.2167C21.5446 23.0611 21.4668 22.8861 21.4668 22.6917C21.4668 22.4972 21.5446 22.3222 21.7001 22.1667C24.3446 19.8333 25.5501 17.4611 25.3168 15.05C25.0835 13.1056 24.0335 11.2 22.1668 9.33333C21.2335 8.4 20.3001 7.66111 19.3668 7.11667C19.0557 6.96111 18.9001 6.72778 18.9001 6.41667C18.9001 6.10555 19.0362 5.89167 19.3085 5.775C19.5807 5.65833 19.8335 5.67778 20.0668 5.83333C21.1557 6.45555 22.2057 7.31111 23.2168 8.4C25.3168 10.5 26.4835 12.6389 26.7168 14.8167C27.0279 17.7722 25.6668 20.6111 22.6335 23.3333C22.5557 23.4111 22.4001 23.45 22.1668 23.45ZM24.0335 34.7667C23.8779 34.7667 23.7224 34.7083 23.5668 34.5917C23.4112 34.475 23.3335 34.3 23.3335 34.0667V29.6333C23.3335 29.3222 23.2362 29.0694 23.0418 28.875C22.8474 28.6806 22.5946 28.5833 22.2835 28.5833H21.4668C21.1557 28.5833 20.9029 28.6806 20.7085 28.875C20.514 29.0694 20.4168 29.3222 20.4168 29.6333V34.0667C20.4168 34.3 20.339 34.475 20.1835 34.5917C20.0279 34.7083 19.8529 34.7667 19.6585 34.7667C19.464 34.7667 19.289 34.7083 19.1335 34.5917C18.9779 34.475 18.9001 34.3 18.9001 34.0667V29.6333C18.9001 28.9333 19.1529 28.3306 19.6585 27.825C20.164 27.3194 20.7668 27.0667 21.4668 27.0667H22.2835C22.9835 27.0667 23.5862 27.3194 24.0918 27.825C24.5974 28.3306 24.8112 28.9333 24.7335 29.6333V34.0667C24.8112 34.3 24.7724 34.475 24.6168 34.5917C24.4612 34.7083 24.2668 34.7667 24.0335 34.7667Z" fill="white"/>
</g>
<defs>
<clipPath id="clip0_175_294">
<rect width="35" height="35" fill="white" transform="matrix(1 0 0 -1 0 35)"/>
</clipPath>
</defs>
</svg>
