<svg width="60" height="60" viewBox="0 0 60 60" fill="none" xmlns="http://www.w3.org/2000/svg">
<path d="M30.2373 41.0241C30.5434 41.0241 30.8368 40.9026 31.0532 40.6862C31.2696 40.4698 31.3912 40.1763 31.3912 39.8703V34.3648C31.3912 34.0588 31.2696 33.7653 31.0532 33.5489C30.8368 33.3325 30.5434 33.2109 30.2373 33.2109C29.9313 33.2109 29.6378 33.3325 29.4214 33.5489C29.2051 33.7653 29.0835 34.0588 29.0835 34.3648V39.8703C29.0835 40.1763 29.2051 40.4698 29.4214 40.6862C29.6378 40.9026 29.9313 41.0241 30.2373 41.0241Z" fill="#0068CA"/>
<path d="M30.2373 16.4841C30.5434 16.4841 30.8368 16.3625 31.0532 16.1461C31.2696 15.9297 31.3912 15.6363 31.3912 15.3302V9.85111C31.3912 9.54509 31.2696 9.25161 31.0532 9.03522C30.8368 8.81883 30.5434 8.69727 30.2373 8.69727C29.9313 8.69727 29.6378 8.81883 29.4214 9.03522C29.2051 9.25161 29.0835 9.54509 29.0835 9.85111V15.3566C29.0904 15.658 29.215 15.9448 29.4306 16.1555C29.6463 16.3662 29.9358 16.4842 30.2373 16.4841Z" fill="#0068CA"/>
<path d="M30.2373 28.7663C30.5434 28.7663 30.8368 28.6447 31.0532 28.4284C31.2696 28.212 31.3912 27.9185 31.3912 27.6125V22.107C31.3912 21.801 31.2696 21.5075 31.0532 21.2911C30.8368 21.0747 30.5434 20.9531 30.2373 20.9531C29.9313 20.9531 29.6378 21.0747 29.4214 21.2911C29.2051 21.5075 29.0835 21.801 29.0835 22.107V27.6125C29.0835 27.9185 29.2051 28.212 29.4214 28.4284C29.6378 28.6447 29.9313 28.7663 30.2373 28.7663Z" fill="#0068CA"/>
<path d="M38.42 16.4841C38.7192 16.4807 39.0054 16.3613 39.2182 16.1509C39.431 15.9406 39.5538 15.6558 39.5606 15.3566V9.85111C39.5606 9.54509 39.4391 9.25161 39.2227 9.03522C39.0063 8.81883 38.7128 8.69727 38.4068 8.69727C38.1008 8.69727 37.8073 8.81883 37.5909 9.03522C37.3745 9.25161 37.2529 9.54509 37.2529 9.85111V15.3566C37.2599 15.6603 37.3863 15.9491 37.6048 16.1601C37.8233 16.3712 38.1162 16.4876 38.42 16.4841Z" fill="#0068CA"/>
<path d="M38.42 28.7663C38.7237 28.7628 39.0138 28.6397 39.2273 28.4237C39.4409 28.2077 39.5606 27.9162 39.5606 27.6125V22.107C39.5606 21.801 39.4391 21.5075 39.2227 21.2911C39.0063 21.0747 38.7128 20.9531 38.4068 20.9531C38.1008 20.9531 37.8073 21.0747 37.5909 21.2911C37.3745 21.5075 37.2529 21.801 37.2529 22.107V27.6125C37.2529 27.7651 37.2832 27.9162 37.342 28.0571C37.4008 28.1979 37.487 28.3257 37.5955 28.4331C37.7041 28.5404 37.8328 28.6251 37.9744 28.6823C38.1159 28.7395 38.2673 28.7681 38.42 28.7663Z" fill="#0068CA"/>
<path d="M38.42 41.0241C38.7237 41.0207 39.0138 40.8976 39.2273 40.6815C39.4409 40.4655 39.5606 40.174 39.5606 39.8703V34.3648C39.5606 34.0588 39.4391 33.7653 39.2227 33.5489C39.0063 33.3325 38.7128 33.2109 38.4068 33.2109C38.1008 33.2109 37.8073 33.3325 37.5909 33.5489C37.3745 33.7653 37.2529 34.0588 37.2529 34.3648V39.8703C37.2529 40.0229 37.2832 40.174 37.342 40.3149C37.4008 40.4558 37.487 40.5836 37.5955 40.6909C37.7041 40.7982 37.8328 40.8829 37.9744 40.9401C38.1159 40.9973 38.2673 41.0259 38.42 41.0241Z" fill="#0068CA"/>
<path d="M51.9429 45.4093H52.9187C53.2248 45.4093 53.5182 45.2877 53.7346 45.0713C53.951 44.8549 54.0726 44.5614 54.0726 44.2554C54.0726 43.9494 53.951 43.6559 53.7346 43.4395C53.5182 43.2231 53.2248 43.1016 52.9187 43.1016H51.9429C51.6369 43.1016 51.3434 43.2231 51.127 43.4395C50.9106 43.6559 50.7891 43.9494 50.7891 44.2554C50.7891 44.5614 50.9106 44.8549 51.127 45.0713C51.3434 45.2877 51.6369 45.4093 51.9429 45.4093Z" fill="#0068CA"/>
<path d="M51.9429 38.8018H52.9187C53.2248 38.8018 53.5182 38.6803 53.7346 38.4639C53.951 38.2475 54.0726 37.954 54.0726 37.648C54.0726 37.342 53.951 37.0485 53.7346 36.8321C53.5182 36.6157 53.2248 36.4941 52.9187 36.4941H51.9429C51.6369 36.4941 51.3434 36.6157 51.127 36.8321C50.9106 37.0485 50.7891 37.342 50.7891 37.648C50.7891 37.954 50.9106 38.2475 51.127 38.4639C51.3434 38.6803 51.6369 38.8018 51.9429 38.8018Z" fill="#0068CA"/>
<path d="M51.9429 51.9561H52.9187C53.2248 51.9561 53.5182 51.8346 53.7346 51.6182C53.951 51.4018 54.0726 51.1083 54.0726 50.8023C54.0726 50.4963 53.951 50.2028 53.7346 49.9864C53.5182 49.77 53.2248 49.6484 52.9187 49.6484H51.9429C51.6369 49.6484 51.3434 49.77 51.127 49.9864C50.9106 50.2028 50.7891 50.4963 50.7891 50.8023C50.7891 51.1083 50.9106 51.4018 51.127 51.6182C51.3434 51.8346 51.6369 51.9561 51.9429 51.9561Z" fill="#0068CA"/>
<path d="M16.3384 32.255H17.3076C17.6137 32.255 17.9072 32.1334 18.1235 31.917C18.3399 31.7006 18.4615 31.4071 18.4615 31.1011C18.4615 30.7951 18.3399 30.5016 18.1235 30.2852C17.9072 30.0688 17.6137 29.9473 17.3076 29.9473H16.3384C16.0324 29.9473 15.7389 30.0688 15.5225 30.2852C15.3061 30.5016 15.1846 30.7951 15.1846 31.1011C15.1846 31.4071 15.3061 31.7006 15.5225 31.917C15.7389 32.1334 16.0324 32.255 16.3384 32.255Z" fill="#0068CA"/>
<path d="M16.3384 25.6495H17.3076C17.6137 25.6495 17.9072 25.5279 18.1235 25.3115C18.3399 25.0951 18.4615 24.8017 18.4615 24.4956C18.4615 24.1896 18.3399 23.8961 18.1235 23.6797C17.9072 23.4634 17.6137 23.3418 17.3076 23.3418H16.3384C16.0324 23.3418 15.7389 23.4634 15.5225 23.6797C15.3061 23.8961 15.1846 24.1896 15.1846 24.4956C15.1846 24.8017 15.3061 25.0951 15.5225 25.3115C15.7389 25.5279 16.0324 25.6495 16.3384 25.6495Z" fill="#0068CA"/>
<path d="M16.3384 38.8018H17.3076C17.6137 38.8018 17.9072 38.6803 18.1235 38.4639C18.3399 38.2475 18.4615 37.954 18.4615 37.648C18.4615 37.342 18.3399 37.0485 18.1235 36.8321C17.9072 36.6157 17.6137 36.4941 17.3076 36.4941H16.3384C16.0324 36.4941 15.7389 36.6157 15.5225 36.8321C15.3061 37.0485 15.1846 37.342 15.1846 37.648C15.1846 37.954 15.3061 38.2475 15.5225 38.4639C15.7389 38.6803 16.0324 38.8018 16.3384 38.8018Z" fill="#0068CA"/>
<path d="M58.378 27.0728H47.5911V2.16947C47.5911 1.86345 47.4696 1.56997 47.2532 1.35358C47.0368 1.13719 46.7433 1.01563 46.4373 1.01562H22.2197C21.9194 1.02421 21.6344 1.14955 21.4251 1.36502C21.2157 1.58048 21.0987 1.86908 21.0988 2.16947V16.5761H11.4263C11.1203 16.5761 10.8268 16.6976 10.6104 16.914C10.394 17.1304 10.2725 17.4239 10.2725 17.7299V32.0772C10.2725 32.3832 10.394 32.6767 10.6104 32.8931C10.8268 33.1094 11.1203 33.231 11.4263 33.231C11.7323 33.231 12.0258 33.1094 12.2422 32.8931C12.4586 32.6767 12.5802 32.3832 12.5802 32.0772V18.8904H21.0988V57.4947H12.5274C12.2214 57.4947 11.9279 57.6163 11.7115 57.8327C11.4951 58.0491 11.3736 58.3426 11.3736 58.6486C11.3736 58.9546 11.4951 59.2481 11.7115 59.4645C11.9279 59.6809 12.2214 59.8024 12.5274 59.8024H54.4351C55.7829 59.8007 57.0753 59.2659 58.0301 58.3147C58.985 57.3636 59.5248 56.0733 59.5318 54.7255V28.2266C59.5318 27.9206 59.4102 27.6271 59.1938 27.4107C58.9775 27.1943 58.684 27.0728 58.378 27.0728ZM31.3911 57.4947V48.3101H37.2659V57.4947H31.3911ZM45.2835 57.4947H39.5604V47.1563C39.5604 46.8503 39.4388 46.5568 39.2224 46.3404C39.006 46.124 38.7125 46.0024 38.4065 46.0024H30.2373C29.9313 46.0024 29.6378 46.124 29.4214 46.3404C29.205 46.5568 29.0835 46.8503 29.0835 47.1563V57.4947H23.3736V3.29694H45.2835V57.4947ZM57.2241 54.7255C57.2241 55.4658 56.9305 56.1759 56.4076 56.7C55.8848 57.2241 55.1754 57.5194 54.4351 57.5211H47.5977V29.3805H57.2241V54.7255Z" fill="#0068CA"/>
<path d="M14.6968 43.8335C14.6968 39.1324 8.53853 35.5851 8.27479 35.4401C8.10262 35.3399 7.90697 35.2871 7.70776 35.2871C7.50856 35.2871 7.31291 35.3399 7.14073 35.4401C6.87699 35.5851 0.71875 39.1324 0.71875 43.8335C0.71875 48.0664 3.25062 51.5807 6.55391 52.2533V58.6818C6.55391 58.9879 6.67548 59.2813 6.89187 59.4977C7.10826 59.7141 7.40174 59.8357 7.70776 59.8357C8.01378 59.8357 8.30727 59.7141 8.52365 59.4977C8.74004 59.2813 8.86161 58.9879 8.86161 58.6818V52.2862C12.1649 51.5807 14.6968 48.0664 14.6968 43.8335ZM3.02644 43.8335C3.02644 41.361 6.01326 38.895 7.70776 37.7939C9.40227 38.895 12.3891 41.3478 12.3891 43.8335C12.3891 46.7412 10.8858 49.1873 8.86161 49.873V47.1566C8.86161 46.8505 8.74004 46.5571 8.52365 46.3407C8.30727 46.1243 8.01378 46.0027 7.70776 46.0027C7.40174 46.0027 7.10826 46.1243 6.89187 46.3407C6.67548 46.5571 6.55391 46.8505 6.55391 47.1566V49.873C4.52974 49.1873 3.02644 46.7478 3.02644 43.8335Z" fill="#0068CA"/>
</svg>
