<svg width="35" height="32" viewBox="0 0 35 32" fill="none" xmlns="http://www.w3.org/2000/svg">
<path d="M17.2667 29.9275H6.41667C5.79444 29.9275 5.28889 29.7136 4.9 29.2859C4.51111 28.8581 4.31667 28.372 4.31667 27.8275V13.2442L15.2833 3.56086C15.8278 3.09419 16.4889 2.86086 17.2667 2.86086C18.0444 2.86086 18.7056 3.09419 19.25 3.56086L33.1333 15.8109C33.2889 15.9664 33.4833 16.0247 33.7167 15.9859C33.95 15.947 34.1444 15.8497 34.3 15.6942C34.4556 15.5386 34.5139 15.3442 34.475 15.1109C34.4361 14.8775 34.3389 14.6831 34.1833 14.5275L31.85 12.5442V4.26086C31.85 3.09419 31.4222 2.08308 30.5667 1.22753C29.7111 0.371969 28.7 -0.0363636 27.5333 0.00252533C26.3667 0.0414143 25.375 0.469193 24.5583 1.28586C23.7417 2.10253 23.2944 3.09419 23.2167 4.26086V4.96086L20.3 2.39419C19.4444 1.61642 18.4333 1.22753 17.2667 1.22753C16.1 1.22753 15.0889 1.61642 14.2333 2.39419L0.35 14.5275C0.116667 14.6831 0 14.8775 0 15.1109C0 15.3442 0.0777778 15.5386 0.233333 15.6942C0.388889 15.8497 0.583333 15.947 0.816667 15.9859C1.05 16.0247 1.24444 15.9664 1.4 15.8109L2.68333 14.7609V27.8275C2.68333 28.8386 3.05278 29.7136 3.79167 30.4525C4.53056 31.1914 5.40556 31.5609 6.41667 31.5609H17.2667C17.5 31.5609 17.6944 31.4831 17.85 31.3275C18.0056 31.172 18.0833 30.9775 18.0833 30.7442C18.0833 30.5109 18.0056 30.3164 17.85 30.1609C17.6944 30.0053 17.5 29.9275 17.2667 29.9275ZM24.85 4.26086C24.9278 3.48308 25.2194 2.84141 25.725 2.33586C26.2306 1.8303 26.8528 1.59697 27.5917 1.63586C28.3306 1.67475 28.9528 1.94697 29.4583 2.45253C29.9639 2.95808 30.2167 3.56086 30.2167 4.26086V11.0275L24.85 6.36086V4.26086ZM17.2667 8.22753C16.1778 8.22753 15.2444 8.61642 14.4667 9.39419C13.6889 10.172 13.3 11.1053 13.3 12.1942C13.3 13.2831 13.6889 14.2164 14.4667 14.9942C15.2444 15.772 16.1778 16.1609 17.2667 16.1609C18.3556 16.1609 19.2889 15.772 20.0667 14.9942C20.8444 14.2164 21.2333 13.2831 21.2333 12.1942C21.2333 11.1053 20.8444 10.172 20.0667 9.39419C19.2889 8.61642 18.3556 8.22753 17.2667 8.22753ZM19.6 12.1942C19.6 12.8942 19.3667 13.4581 18.9 13.8859C18.4333 14.3136 17.8889 14.5275 17.2667 14.5275C16.6444 14.5275 16.1 14.3136 15.6333 13.8859C15.1667 13.4581 14.9333 12.9136 14.9333 12.2525C14.9333 11.5914 15.1667 11.0275 15.6333 10.5609C16.1 10.0942 16.6444 9.86086 17.2667 9.86086C17.8889 9.86086 18.4333 10.0942 18.9 10.5609C19.3667 11.0275 19.6 11.572 19.6 12.1942ZM34.3 30.2775L31.5 27.3609C32.2 26.3497 32.55 25.222 32.55 23.9775C32.55 22.422 31.9861 21.0997 30.8583 20.0109C29.7306 18.922 28.3889 18.3775 26.8333 18.3775C25.2778 18.3775 23.9361 18.922 22.8083 20.0109C21.6806 21.0997 21.1167 22.4414 21.1167 24.0359C21.1167 25.6303 21.6806 26.972 22.8083 28.0609C23.9361 29.1497 25.2778 29.6942 26.8333 29.6942C28.1556 29.6942 29.3222 29.3053 30.3333 28.5275L33.0167 31.3275C33.1722 31.4831 33.3667 31.5803 33.6 31.6192C33.8333 31.6581 34.0472 31.5997 34.2417 31.4442C34.4361 31.2886 34.5333 31.0942 34.5333 30.8609C34.5333 30.6275 34.4556 30.4331 34.3 30.2775ZM26.8333 28.0609C25.7444 28.0609 24.7917 27.672 23.975 26.8942C23.1583 26.1164 22.75 25.1636 22.75 24.0359C22.75 22.9081 23.1583 21.9553 23.975 21.1775C24.7917 20.3997 25.7639 20.0109 26.8917 20.0109C28.0194 20.0109 28.9722 20.3997 29.75 21.1775C30.5278 21.9553 30.9167 22.9081 30.9167 24.0359C30.9167 25.1636 30.5278 26.1164 29.75 26.8942C28.9722 27.672 28 28.0609 26.8333 28.0609Z" fill="white"/>
</svg>
