<svg width="90" height="90" viewBox="0 0 90 90" fill="none" xmlns="http://www.w3.org/2000/svg">
<path d="M23.73 76.9721C23.7 77.0246 23.6625 77.0621 23.625 77.0921C23.5875 77.1146 23.5426 77.1296 23.4901 77.1296C23.4376 77.1296 23.385 77.1146 23.325 77.0846C23.265 77.0546 23.205 77.0171 23.13 76.9796C23.055 76.9421 22.9725 76.9046 22.8825 76.8746C22.7925 76.8446 22.68 76.8296 22.56 76.8296C22.35 76.8296 22.2 76.8746 22.095 76.9646C21.9975 77.0546 21.945 77.1746 21.945 77.3246C21.945 77.4746 21.975 77.4971 22.035 77.5646C22.095 77.6246 22.1775 77.6846 22.275 77.7296C22.3725 77.7746 22.485 77.8196 22.6125 77.8571C22.74 77.8946 22.8676 77.9396 23.0026 77.9846C23.1376 78.0296 23.265 78.0896 23.3925 78.1496C23.52 78.2096 23.6325 78.2921 23.73 78.3896C23.8275 78.4871 23.91 78.6071 23.97 78.7496C24.03 78.8921 24.06 79.0571 24.06 79.2596C24.06 79.4621 24.0225 79.6871 23.9475 79.8746C23.8725 80.0696 23.76 80.2346 23.6175 80.3771C23.475 80.5196 23.295 80.6321 23.085 80.7146C22.875 80.7971 22.6351 80.8346 22.365 80.8346C22.095 80.8346 22.065 80.8196 21.915 80.7896C21.765 80.7596 21.615 80.7146 21.4725 80.6621C21.33 80.6096 21.195 80.5421 21.0675 80.4671C20.94 80.3921 20.835 80.3096 20.7375 80.2121L21.0675 79.6946C21.09 79.6571 21.1275 79.6271 21.1725 79.6046C21.2175 79.5821 21.2625 79.5671 21.3075 79.5671C21.3525 79.5671 21.435 79.5896 21.5025 79.6271C21.57 79.6721 21.645 79.7171 21.7275 79.7621C21.81 79.8146 21.9075 79.8596 22.0125 79.8971C22.1175 79.9421 22.2525 79.9571 22.395 79.9571C22.5375 79.9571 22.7475 79.9121 22.86 79.8221C22.9725 79.7321 23.025 79.5971 23.025 79.4021C23.025 79.2071 22.995 79.1996 22.935 79.1321C22.875 79.0646 22.7925 79.0046 22.695 78.9596C22.5975 78.9146 22.485 78.8771 22.3575 78.8396C22.23 78.8021 22.1025 78.7646 21.9675 78.7271C21.8325 78.6821 21.705 78.6296 21.5775 78.5696C21.45 78.5096 21.3375 78.4271 21.24 78.3221C21.1425 78.2246 21.06 78.0971 21 77.9471C20.94 77.7971 20.91 77.6096 20.91 77.3846C20.91 77.1596 20.9475 77.0321 21.015 76.8596C21.0825 76.6871 21.195 76.5371 21.33 76.4096C21.4725 76.2746 21.6375 76.1696 21.84 76.0946C22.0425 76.0121 22.275 75.9746 22.5375 75.9746C22.8 75.9746 22.8226 75.9896 22.965 76.0121C23.1076 76.0346 23.235 76.0721 23.355 76.1096C23.4825 76.1546 23.595 76.2071 23.7 76.2671C23.805 76.3271 23.9025 76.4021 23.985 76.4771L23.7075 76.9871L23.73 76.9721Z" fill="#03529B"/>
<path d="M32.0551 76.0049L30.1501 80.7599H29.1526L27.2476 76.0049H28.1326C28.2301 76.0049 28.3051 76.0274 28.3651 76.0724C28.4251 76.1174 28.4701 76.1774 28.5001 76.2449L29.4226 78.7874C29.4676 78.8999 29.5051 79.0199 29.5501 79.1549C29.5951 79.2899 29.6326 79.4249 29.6701 79.5674C29.7001 79.4249 29.7376 79.2899 29.7751 79.1549C29.8126 79.0199 29.8576 78.8999 29.8951 78.7874L30.8101 76.2449C30.8326 76.1849 30.8776 76.1324 30.9376 76.0799C30.9976 76.0274 31.0726 76.0049 31.1701 76.0049H32.0626H32.0551Z" fill="#03529B"/>
<path d="M41.3099 80.7599H40.2V76.0049H41.3099V80.7599Z" fill="#03529B"/>
<path d="M50.6026 76.0049V80.7599H49.6276V78.0224C49.6276 77.9624 49.6276 77.8874 49.6276 77.8199C49.6276 77.7449 49.6351 77.6699 49.6426 77.5949L48.3826 80.0399C48.3451 80.1149 48.2926 80.1749 48.2251 80.2124C48.1576 80.2499 48.0826 80.2724 48.0001 80.2724H47.8501C47.7676 80.2724 47.6926 80.2499 47.6251 80.2124C47.5576 80.1749 47.5051 80.1149 47.4676 80.0399L46.2076 77.5874C46.2076 77.6624 46.2226 77.7449 46.2226 77.8199C46.2226 77.8949 46.2226 77.9624 46.2226 78.0299V80.7674H45.2476V76.0124H46.0876C46.1326 76.0124 46.1776 76.0124 46.2151 76.0124C46.2526 76.0124 46.2826 76.0199 46.3126 76.0349C46.3426 76.0424 46.3651 76.0649 46.3876 76.0874C46.4101 76.1099 46.4326 76.1399 46.4551 76.1849L47.6776 78.5924C47.7226 78.6749 47.7601 78.7574 47.8051 78.8474C47.8426 78.9374 47.8876 79.0274 47.9176 79.1249C47.9551 79.0274 47.9926 78.9374 48.0301 78.8474C48.0676 78.7574 48.1126 78.6674 48.1576 78.5849L49.3801 76.1849C49.4026 76.1474 49.4251 76.1099 49.4476 76.0874C49.4701 76.0649 49.4926 76.0499 49.5226 76.0349C49.5526 76.0274 49.5826 76.0199 49.6201 76.0124C49.6576 76.0049 49.6951 76.0124 49.7476 76.0124H50.5876L50.6026 76.0049Z" fill="#03529B"/>
<path d="M59.895 76.0049V80.7599H58.92V78.0224C58.92 77.9624 58.92 77.8874 58.92 77.8199C58.92 77.7449 58.9275 77.6699 58.935 77.5949L57.675 80.0399C57.6375 80.1149 57.585 80.1749 57.5175 80.2124C57.45 80.2499 57.375 80.2724 57.2925 80.2724H57.1425C57.06 80.2724 56.985 80.2499 56.9175 80.2124C56.85 80.1749 56.7975 80.1149 56.76 80.0399L55.5 77.5874C55.5 77.6624 55.515 77.7449 55.515 77.8199C55.515 77.8949 55.515 77.9624 55.515 78.0299V80.7674H54.54V76.0124H55.38C55.425 76.0124 55.47 76.0124 55.5075 76.0124C55.545 76.0124 55.575 76.0199 55.605 76.0349C55.635 76.0424 55.6575 76.0649 55.68 76.0874C55.7025 76.1099 55.725 76.1399 55.7475 76.1849L56.97 78.5924C57.015 78.6749 57.0525 78.7574 57.0975 78.8474C57.135 78.9374 57.18 79.0274 57.21 79.1249C57.2475 79.0274 57.285 78.9374 57.3225 78.8474C57.36 78.7574 57.405 78.6674 57.45 78.5849L58.6725 76.1849C58.695 76.1474 58.7175 76.1099 58.74 76.0874C58.7625 76.0649 58.785 76.0499 58.815 76.0349C58.845 76.0274 58.875 76.0199 58.9125 76.0124C58.95 76.0049 58.9875 76.0124 59.04 76.0124H59.88L59.895 76.0049Z" fill="#03529B"/>
<path d="M68.5201 78.3821C68.5201 78.7271 68.4601 79.0421 68.3401 79.3421C68.2201 79.6346 68.0551 79.8971 67.8376 80.1146C67.6201 80.3321 67.3651 80.5046 67.0576 80.6321C66.7576 80.7596 66.4201 80.8196 66.0451 80.8196C65.6701 80.8196 65.3401 80.7596 65.0326 80.6321C64.7251 80.5046 64.4701 80.3396 64.2526 80.1146C64.0351 79.8896 63.8701 79.6421 63.7501 79.3421C63.6301 79.0496 63.5701 78.7271 63.5701 78.3821C63.5701 78.0371 63.6301 77.7222 63.7501 77.4222C63.8701 77.1297 64.0351 76.8671 64.2526 76.6496C64.4701 76.4321 64.7326 76.2596 65.0326 76.1396C65.3401 76.0121 65.6776 75.9521 66.0451 75.9521C66.4126 75.9521 66.7501 76.0121 67.0576 76.1396C67.3576 76.2671 67.6201 76.4396 67.8376 76.6571C68.0551 76.8746 68.2201 77.1296 68.3401 77.4296C68.4601 77.7221 68.5201 78.0446 68.5201 78.3821ZM67.3876 78.3821C67.3876 78.1496 67.3576 77.9321 67.2976 77.7446C67.2376 77.5571 67.1476 77.3996 67.0351 77.2646C66.9226 77.1296 66.7801 77.0321 66.6151 76.9646C66.4501 76.8971 66.2626 76.8597 66.0526 76.8597C65.8426 76.8597 65.6476 76.8971 65.4826 76.9646C65.3176 77.0321 65.1751 77.1371 65.0626 77.2646C64.9501 77.3921 64.8601 77.5571 64.8001 77.7446C64.7401 77.9321 64.7101 78.1421 64.7101 78.3821C64.7101 78.6221 64.7401 78.8321 64.8001 79.0196C64.8601 79.2071 64.9501 79.3646 65.0626 79.4996C65.1751 79.6271 65.3176 79.7321 65.4826 79.7996C65.6476 79.8671 65.8351 79.9046 66.0526 79.9046C66.2701 79.9046 66.4501 79.8671 66.6151 79.7996C66.7801 79.7321 66.9226 79.6346 67.0351 79.4996C67.1476 79.3721 67.2376 79.2071 67.2976 79.0196C67.3576 78.8321 67.3876 78.6221 67.3876 78.3821Z" fill="#03529B"/>
<path d="M81.2025 80.7599H80.3475C80.25 80.7599 80.175 80.7374 80.115 80.6924C80.055 80.6474 80.01 80.5874 79.98 80.5199L79.7025 79.6949H77.895L77.6175 80.5199C77.595 80.5799 77.55 80.6324 77.49 80.6849C77.43 80.7374 77.355 80.7599 77.2575 80.7599H76.395L78.2325 76.0049H79.365L81.2025 80.7599ZM79.455 78.9449L79.0125 77.6399C78.9825 77.5574 78.945 77.4599 78.9075 77.3474C78.87 77.2349 78.8325 77.1149 78.795 76.9874C78.765 77.1224 78.7275 77.2424 78.69 77.3549C78.6525 77.4674 78.615 77.5649 78.585 77.6474L78.15 78.9449H79.455Z" fill="#03529B"/>
<path d="M86.715 78.2921H88.4025V80.3021C88.1625 80.4821 87.9 80.6096 87.6225 80.6921C87.345 80.7746 87.06 80.8121 86.76 80.8121C86.46 80.8121 86.01 80.7521 85.695 80.6246C85.3725 80.5046 85.1025 80.3321 84.87 80.1146C84.645 79.8971 84.465 79.6421 84.345 79.3421C84.2175 79.0421 84.1575 78.7196 84.1575 78.3746C84.1575 78.0296 84.2175 77.6921 84.33 77.3996C84.45 77.0996 84.615 76.8446 84.8325 76.6346C85.05 76.4171 85.3125 76.2521 85.6275 76.1321C85.935 76.0121 86.2875 75.9521 86.67 75.9521C87.0525 75.9521 87.0525 75.9671 87.225 76.0046C87.3975 76.0346 87.5625 76.0796 87.705 76.1396C87.855 76.1996 87.9825 76.2671 88.11 76.3421C88.2375 76.4171 88.3425 76.5071 88.44 76.5971L88.1175 77.0847C88.065 77.1597 88.005 77.2046 87.9225 77.2271C87.84 77.2496 87.7575 77.2271 87.6675 77.1671C87.5775 77.1146 87.495 77.0696 87.42 77.0321C87.345 76.9946 87.2625 76.9646 87.18 76.9421C87.0975 76.9196 87.015 76.8971 86.925 76.8896C86.835 76.8821 86.7375 76.8746 86.625 76.8746C86.415 76.8746 86.235 76.9121 86.07 76.9871C85.905 77.0621 85.7625 77.1596 85.65 77.2946C85.53 77.4296 85.4475 77.5871 85.38 77.7746C85.32 77.9621 85.2825 78.1647 85.2825 78.3972C85.2825 78.6297 85.32 78.8772 85.3875 79.0722C85.455 79.2672 85.5525 79.4321 85.68 79.5671C85.8075 79.7021 85.9575 79.8071 86.1375 79.8746C86.3175 79.9421 86.5125 79.9796 86.73 79.9796C86.9475 79.9796 86.985 79.9646 87.09 79.9421C87.195 79.9196 87.3 79.8821 87.405 79.8371V79.1171H86.9325C86.865 79.1171 86.805 79.1021 86.7675 79.0646C86.73 79.0271 86.7075 78.9822 86.7075 78.9222V78.3146L86.715 78.2921Z" fill="#03529B"/>
<path d="M21.9824 85.3721L21.4124 86.7671H21.2399L20.6699 85.3721H20.8199C20.8349 85.3721 20.8499 85.3721 20.8574 85.3871C20.8649 85.3946 20.8724 85.4096 20.8799 85.4171L21.2774 86.3996C21.2849 86.4221 21.2924 86.4446 21.2999 86.4746C21.3074 86.4971 21.3149 86.5271 21.3224 86.5571C21.3224 86.5271 21.3374 86.5046 21.3449 86.4746C21.3449 86.4521 21.3599 86.4221 21.3674 86.3996L21.7574 85.4171C21.7574 85.4096 21.7724 85.3946 21.7799 85.3871C21.7949 85.3796 21.8024 85.3721 21.8249 85.3721H21.9749H21.9824Z" fill="#03529B"/>
<path d="M23.9924 86.6174V86.7749H23.1299V85.3799H23.9924V85.5374H23.3174V86.0024H23.8649V86.1524H23.3174V86.6324H23.9924V86.6174Z" fill="#03529B"/>
<path d="M26.2123 86.7752H26.0473C26.0098 86.7752 25.9873 86.7602 25.9723 86.7377L25.6123 86.2352C25.6048 86.2202 25.5898 86.2052 25.5748 86.2052C25.5598 86.2052 25.5448 86.1977 25.5148 86.1977H25.3723V86.7827H25.1848V85.3877H25.5823C25.6723 85.3877 25.7473 85.3952 25.8148 85.4177C25.8823 85.4327 25.9348 85.4627 25.9723 85.4927C26.0173 85.5302 26.0473 85.5677 26.0623 85.6127C26.0848 85.6577 26.0923 85.7102 26.0923 85.7702C26.0923 85.8302 26.0848 85.8677 26.0698 85.9052C26.0548 85.9427 26.0323 85.9877 26.0023 86.0177C25.9723 86.0552 25.9348 86.0777 25.8973 86.1077C25.8598 86.1377 25.8073 86.1527 25.7548 86.1602C25.7773 86.1752 25.7998 86.1902 25.8148 86.2202L26.2198 86.7752H26.2123ZM25.5673 86.0552C25.6198 86.0552 25.6723 86.0552 25.7098 86.0327C25.7548 86.0177 25.7848 86.0027 25.8148 85.9727C25.8448 85.9502 25.8673 85.9202 25.8823 85.8827C25.8973 85.8452 25.9048 85.8152 25.9048 85.7702C25.9048 85.6877 25.8748 85.6277 25.8223 85.5827C25.7698 85.5377 25.6873 85.5227 25.5748 85.5227H25.3648V86.0477H25.5673V86.0552Z" fill="#03529B"/>
<path d="M27.5549 85.988H27.6224C27.6449 85.988 27.6674 85.988 27.6824 85.9805C27.6974 85.9805 27.7124 85.9655 27.7199 85.9505L28.1849 85.4255C28.1999 85.4105 28.2149 85.3955 28.2224 85.388C28.2299 85.3805 28.2524 85.3805 28.2749 85.3805H28.4324L27.8999 85.9805C27.8849 85.9955 27.8774 86.0105 27.8624 86.018C27.8474 86.0255 27.8399 86.033 27.8249 86.0405C27.8399 86.0405 27.8549 86.0555 27.8699 86.063C27.8849 86.078 27.8999 86.0855 27.9149 86.108L28.4699 86.768H28.3049C28.2899 86.768 28.2824 86.768 28.2749 86.768C28.2674 86.768 28.2599 86.768 28.2524 86.7605C28.2524 86.7605 28.2374 86.753 28.2374 86.7455C28.2374 86.738 28.2299 86.738 28.2224 86.7305L27.7424 86.1755C27.7274 86.1605 27.7124 86.1455 27.6974 86.138C27.6824 86.138 27.6599 86.1305 27.6299 86.1305H27.5474V86.768H27.3599V85.373H27.5474V85.988H27.5549Z" fill="#03529B"/>
<path d="M30.8475 86.7749H30.6975C30.6825 86.7749 30.6675 86.7749 30.66 86.7599C30.6525 86.7449 30.645 86.7374 30.6375 86.7299L30.51 86.3924H29.88L29.7525 86.7299C29.7525 86.7449 29.7375 86.7524 29.73 86.7599C29.7225 86.7674 29.7075 86.7749 29.6925 86.7749H29.5425L30.0975 85.3799H30.285L30.84 86.7749H30.8475ZM30.4575 86.2499L30.24 85.6799C30.24 85.6649 30.225 85.6424 30.2175 85.6199C30.2175 85.5974 30.2025 85.5749 30.195 85.5449C30.18 85.5974 30.165 85.6424 30.15 85.6799L29.9325 86.2499H30.4575Z" fill="#03529B"/>
<path d="M32.4825 86.6249C32.5425 86.6249 32.595 86.6174 32.64 86.5949C32.685 86.5724 32.7225 86.5499 32.7525 86.5124C32.7825 86.4749 32.805 86.4374 32.8275 86.3849C32.8425 86.3399 32.85 86.2799 32.85 86.2274V85.3799H33.0375V86.2274C33.0375 86.3099 33.0225 86.3849 33 86.4524C32.9775 86.5199 32.94 86.5799 32.8875 86.6324C32.8425 86.6849 32.7825 86.7224 32.715 86.7524C32.6475 86.7824 32.565 86.7974 32.4825 86.7974C32.4 86.7974 32.3175 86.7824 32.25 86.7524C32.1825 86.7224 32.1225 86.6849 32.0775 86.6324C32.0325 86.5799 31.995 86.5199 31.965 86.4524C31.9425 86.3849 31.9275 86.3099 31.9275 86.2274V85.3799H32.115V86.2274C32.115 86.2874 32.1225 86.3399 32.1375 86.3849C32.1525 86.4299 32.175 86.4749 32.2125 86.5124C32.2425 86.5499 32.28 86.5724 32.325 86.5949C32.37 86.6174 32.4225 86.6249 32.4825 86.6249Z" fill="#03529B"/>
<path d="M34.5225 85.5299V86.0174H35.1V86.1749H34.5225V86.7749H34.335V85.3799H35.1975V85.5374H34.5225V85.5299Z" fill="#03529B"/>
<path d="M41.5425 85.3721L40.9725 86.7671H40.8L40.23 85.3721H40.38C40.395 85.3721 40.41 85.3721 40.4175 85.3871C40.425 85.3946 40.4325 85.4096 40.44 85.4171L40.8375 86.3996C40.845 86.4221 40.8525 86.4446 40.86 86.4746C40.8675 86.4971 40.875 86.5271 40.8825 86.5571C40.8825 86.5271 40.8975 86.5046 40.905 86.4746C40.905 86.4521 40.92 86.4221 40.9275 86.3996L41.3175 85.4171C41.3175 85.4096 41.3325 85.3946 41.34 85.3871C41.355 85.3796 41.3625 85.3721 41.385 85.3721H41.535H41.5425Z" fill="#03529B"/>
<path d="M43.5524 86.6174V86.7749H42.6899V85.3799H43.5524V85.5374H42.8774V86.0024H43.4249V86.1524H42.8774V86.6324H43.5524V86.6174Z" fill="#03529B"/>
<path d="M45.7724 86.7752H45.6074C45.5699 86.7752 45.5474 86.7602 45.5324 86.7377L45.1724 86.2352C45.1649 86.2202 45.1499 86.2052 45.1349 86.2052C45.1199 86.2052 45.1049 86.1977 45.0749 86.1977H44.9324V86.7827H44.7449V85.3877H45.1424C45.2324 85.3877 45.3074 85.3952 45.3749 85.4177C45.4424 85.4327 45.4949 85.4627 45.5324 85.4927C45.5774 85.5302 45.6074 85.5677 45.6224 85.6127C45.6449 85.6577 45.6524 85.7102 45.6524 85.7702C45.6524 85.8302 45.6449 85.8677 45.6299 85.9052C45.6149 85.9427 45.5924 85.9877 45.5624 86.0177C45.5324 86.0552 45.4949 86.0777 45.4574 86.1077C45.4199 86.1377 45.3674 86.1527 45.3149 86.1602C45.3374 86.1752 45.3599 86.1902 45.3749 86.2202L45.7799 86.7752H45.7724ZM45.1274 86.0552C45.1799 86.0552 45.2324 86.0552 45.2699 86.0327C45.3149 86.0177 45.3449 86.0027 45.3749 85.9727C45.4049 85.9502 45.4274 85.9202 45.4424 85.8827C45.4574 85.8452 45.4649 85.8152 45.4649 85.7702C45.4649 85.6877 45.4349 85.6277 45.3824 85.5827C45.3299 85.5377 45.2474 85.5227 45.1349 85.5227H44.9249V86.0477H45.1274V86.0552Z" fill="#03529B"/>
<path d="M48.3824 85.3721V86.7671H48.2174V85.7396C48.2174 85.7246 48.2174 85.7096 48.2174 85.6946C48.2174 85.6796 48.2174 85.6646 48.2174 85.6496L47.7374 86.5196C47.7224 86.5496 47.6999 86.5646 47.6699 86.5646H47.6399C47.6099 86.5646 47.5874 86.5496 47.5724 86.5196L47.0849 85.6421C47.0849 85.6796 47.0849 85.7096 47.0849 85.7396V86.7671H46.9199V85.3721H47.0624C47.0774 85.3721 47.0924 85.3721 47.0999 85.3721C47.1074 85.3721 47.1149 85.3871 47.1299 85.4021L47.6099 86.2646C47.6174 86.2796 47.6249 86.2946 47.6324 86.3171C47.6399 86.3396 47.6474 86.3546 47.6549 86.3696C47.6549 86.3546 47.6699 86.3321 47.6774 86.3171C47.6774 86.3021 47.6924 86.2871 47.6999 86.2646L48.1724 85.4021C48.1799 85.3871 48.1874 85.3796 48.1949 85.3721C48.2024 85.3721 48.2174 85.3721 48.2324 85.3721H48.3749H48.3824Z" fill="#03529B"/>
<path d="M49.8826 86.7749H49.6951V85.3799H49.8826V86.7749Z" fill="#03529B"/>
<path d="M52.0576 86.6174V86.7749H51.1951V85.3799H52.0576V85.5374H51.3826V86.0024H51.9301V86.1524H51.3826V86.6324H52.0576V86.6174Z" fill="#03529B"/>
<path d="M54.2625 85.5296H53.8125V86.7671H53.625V85.5296H53.175V85.3721H54.27V85.5296H54.2625Z" fill="#03529B"/>
<path d="M55.9725 86.6249C56.0325 86.6249 56.085 86.6174 56.13 86.5949C56.175 86.5724 56.2125 86.5499 56.2425 86.5124C56.2725 86.4749 56.295 86.4374 56.3175 86.3849C56.3325 86.3399 56.34 86.2799 56.34 86.2274V85.3799H56.5275V86.2274C56.5275 86.3099 56.5125 86.3849 56.49 86.4524C56.4675 86.5199 56.43 86.5799 56.3775 86.6324C56.3325 86.6849 56.2725 86.7224 56.205 86.7524C56.1375 86.7824 56.055 86.7974 55.9725 86.7974C55.89 86.7974 55.8075 86.7824 55.74 86.7524C55.6725 86.7224 55.6125 86.6849 55.5675 86.6324C55.5225 86.5799 55.485 86.5199 55.455 86.4524C55.4325 86.3849 55.4175 86.3099 55.4175 86.2274V85.3799H55.605V86.2274C55.605 86.2874 55.6125 86.3399 55.6275 86.3849C55.6425 86.4299 55.665 86.4749 55.7025 86.5124C55.7325 86.5499 55.77 86.5724 55.815 86.5949C55.86 86.6174 55.9125 86.6249 55.9725 86.6249Z" fill="#03529B"/>
<path d="M58.9574 85.3724V86.7674H58.8599C58.8449 86.7674 58.8299 86.7674 58.8224 86.7599C58.8149 86.7599 58.7999 86.7449 58.7924 86.7299L57.9824 85.6799C57.9824 85.6949 57.9824 85.7099 57.9824 85.7249C57.9824 85.7399 57.9824 85.7549 57.9824 85.7699V86.7674H57.8174V85.3724H57.9149C57.9224 85.3724 57.9299 85.3724 57.9374 85.3724C57.9449 85.3724 57.9449 85.3724 57.9524 85.3724C57.9524 85.3724 57.9599 85.3724 57.9674 85.3799C57.9674 85.3799 57.9749 85.3874 57.9824 85.3949L58.7924 86.4449C58.7924 86.4299 58.7924 86.4149 58.7924 86.3924C58.7924 86.3774 58.7924 86.3624 58.7924 86.3474V85.3574H58.9574V85.3724Z" fill="#03529B"/>
<path d="M61.4175 86.0999V86.6399C61.35 86.6924 61.275 86.7299 61.1925 86.7524C61.11 86.7749 61.0275 86.7899 60.93 86.7899C60.8325 86.7899 60.7125 86.7749 60.6225 86.7374C60.5325 86.6999 60.4575 86.6549 60.39 86.5874C60.3225 86.5274 60.2775 86.4524 60.24 86.3624C60.2025 86.2724 60.1875 86.1749 60.1875 86.0699C60.1875 85.9649 60.2025 85.8674 60.24 85.7774C60.2775 85.6874 60.3225 85.6124 60.3825 85.5524C60.4425 85.4924 60.5175 85.4399 60.6075 85.4099C60.6975 85.3724 60.795 85.3574 60.9075 85.3574C61.02 85.3574 61.0125 85.3574 61.065 85.3724C61.1175 85.3874 61.155 85.3949 61.2 85.4099C61.2375 85.4249 61.275 85.4474 61.3125 85.4624C61.35 85.4849 61.38 85.5074 61.41 85.5374L61.3575 85.6199C61.35 85.6349 61.335 85.6424 61.3275 85.6424C61.3125 85.6424 61.2975 85.6424 61.2825 85.6349C61.2675 85.6274 61.2525 85.6124 61.23 85.6049C61.2075 85.5899 61.185 85.5824 61.155 85.5674C61.125 85.5524 61.095 85.5449 61.05 85.5374C61.0125 85.5299 60.9675 85.5224 60.9075 85.5224C60.8325 85.5224 60.7575 85.5374 60.6975 85.5599C60.6375 85.5824 60.5775 85.6199 60.5325 85.6724C60.4875 85.7174 60.45 85.7774 60.4275 85.8449C60.405 85.9124 60.39 85.9874 60.39 86.0699C60.39 86.1524 60.405 86.2349 60.4275 86.3024C60.45 86.3699 60.4875 86.4299 60.5325 86.4824C60.5775 86.5274 60.6375 86.5649 60.705 86.5949C60.7725 86.6174 60.8475 86.6324 60.93 86.6324C61.0125 86.6324 61.05 86.6324 61.1025 86.6099C61.155 86.5949 61.2 86.5724 61.2525 86.5499V86.2424H61.035C61.02 86.2424 61.0125 86.2424 61.005 86.2349C60.9975 86.2274 60.9975 86.2199 60.9975 86.2049V86.0999H61.425H61.4175Z" fill="#03529B"/>
<path d="M67.8823 85.3721L67.3123 86.7671H67.1398L66.5698 85.3721H66.7198C66.7348 85.3721 66.7498 85.3721 66.7573 85.3871C66.7648 85.3946 66.7723 85.4096 66.7798 85.4171L67.1773 86.3996C67.1848 86.4221 67.1923 86.4446 67.1998 86.4746C67.2073 86.4971 67.2148 86.5271 67.2223 86.5571C67.2223 86.5271 67.2373 86.5046 67.2448 86.4746C67.2448 86.4521 67.2598 86.4221 67.2673 86.3996L67.6573 85.4171C67.6573 85.4096 67.6723 85.3946 67.6798 85.3871C67.6948 85.3796 67.7023 85.3721 67.7248 85.3721H67.8748H67.8823Z" fill="#03529B"/>
<path d="M69.8923 86.6174V86.7749H69.0298V85.3799H69.8923V85.5374H69.2173V86.0024H69.7648V86.1524H69.2173V86.6324H69.8923V86.6174Z" fill="#03529B"/>
<path d="M72.1198 86.7752H71.9548C71.9173 86.7752 71.8948 86.7602 71.8798 86.7377L71.5198 86.2352C71.5123 86.2202 71.4973 86.2052 71.4823 86.2052C71.4673 86.2052 71.4523 86.1977 71.4223 86.1977H71.2798V86.7827H71.0923V85.3877H71.4898C71.5798 85.3877 71.6548 85.3952 71.7223 85.4177C71.7898 85.4327 71.8423 85.4627 71.8798 85.4927C71.9248 85.5302 71.9548 85.5677 71.9698 85.6127C71.9923 85.6577 71.9998 85.7102 71.9998 85.7702C71.9998 85.8302 71.9923 85.8677 71.9773 85.9052C71.9623 85.9427 71.9398 85.9877 71.9098 86.0177C71.8798 86.0552 71.8423 86.0777 71.8048 86.1077C71.7673 86.1377 71.7148 86.1527 71.6623 86.1602C71.6848 86.1752 71.7073 86.1902 71.7223 86.2202L72.1273 86.7752H72.1198ZM71.4673 86.0552C71.5198 86.0552 71.5723 86.0552 71.6098 86.0327C71.6548 86.0177 71.6848 86.0027 71.7148 85.9727C71.7448 85.9502 71.7673 85.9202 71.7823 85.8827C71.7973 85.8452 71.8048 85.8152 71.8048 85.7702C71.8048 85.6877 71.7748 85.6277 71.7223 85.5827C71.6698 85.5377 71.5873 85.5227 71.4748 85.5227H71.2648V86.0477H71.4673V86.0552Z" fill="#03529B"/>
<path d="M75.0447 85.3721L74.6097 86.7671H74.4372L74.0847 85.7021C74.0847 85.6946 74.0847 85.6796 74.0772 85.6721C74.0772 85.6571 74.0772 85.6496 74.0697 85.6346C74.0697 85.6496 74.0697 85.6571 74.0622 85.6721C74.0622 85.6871 74.0622 85.6946 74.0547 85.7021L73.7022 86.7671H73.5297L73.0947 85.3721H73.2522C73.2672 85.3721 73.2822 85.3721 73.2972 85.3871C73.3122 85.4021 73.3122 85.4096 73.3197 85.4171L73.6047 86.3846C73.6047 86.3996 73.6122 86.4221 73.6197 86.4446C73.6197 86.4671 73.6272 86.4896 73.6347 86.5121C73.6347 86.4896 73.6422 86.4671 73.6497 86.4446C73.6497 86.4221 73.6572 86.4071 73.6647 86.3921L73.9947 85.4246C73.9947 85.4171 74.0097 85.4021 74.0172 85.3946C74.0322 85.3871 74.0397 85.3796 74.0622 85.3796H74.1147C74.1297 85.3796 74.1447 85.3796 74.1522 85.3946C74.1597 85.4096 74.1672 85.4171 74.1747 85.4246L74.5047 86.3921C74.5047 86.4071 74.5122 86.4296 74.5197 86.4446C74.5197 86.4671 74.5272 86.4821 74.5347 86.5046C74.5347 86.4821 74.5347 86.4596 74.5422 86.4446C74.5422 86.4221 74.5497 86.4071 74.5572 86.3921L74.8497 85.4246C74.8497 85.4096 74.8572 85.4021 74.8722 85.3946C74.8872 85.3871 74.8947 85.3796 74.9172 85.3796H75.0672L75.0447 85.3721Z" fill="#03529B"/>
<path d="M77.2647 86.7749H77.1147C77.0997 86.7749 77.0847 86.7749 77.0772 86.7599C77.0697 86.7449 77.0622 86.7374 77.0547 86.7299L76.9272 86.3924H76.2972L76.1697 86.7299C76.1697 86.7449 76.1547 86.7524 76.1472 86.7599C76.1397 86.7674 76.1247 86.7749 76.1097 86.7749H75.9597L76.5147 85.3799H76.7022L77.2572 86.7749H77.2647ZM76.8672 86.2499L76.6497 85.6799C76.6497 85.6649 76.6347 85.6424 76.6272 85.6199C76.6272 85.5974 76.6122 85.5749 76.6047 85.5449C76.5897 85.5974 76.5747 85.6424 76.5597 85.6799L76.3422 86.2499H76.8672Z" fill="#03529B"/>
<path d="M79.1998 86.6096V86.7671H78.4048V85.3721H78.5923V86.6096H79.1998Z" fill="#03529B"/>
<path d="M81.1573 85.5296H80.7073V86.7671H80.5198V85.5296H80.0698V85.3721H81.1648V85.5296H81.1573Z" fill="#03529B"/>
<path d="M82.8673 86.6249C82.9273 86.6249 82.9798 86.6174 83.0248 86.5949C83.0698 86.5724 83.1073 86.5499 83.1373 86.5124C83.1673 86.4749 83.1898 86.4374 83.2123 86.3849C83.2273 86.3399 83.2348 86.2799 83.2348 86.2274V85.3799H83.4223V86.2274C83.4223 86.3099 83.4073 86.3849 83.3848 86.4524C83.3623 86.5199 83.3248 86.5799 83.2723 86.6324C83.2273 86.6849 83.1673 86.7224 83.0998 86.7524C83.0323 86.7824 82.9498 86.7974 82.8673 86.7974C82.7848 86.7974 82.7023 86.7824 82.6348 86.7524C82.5673 86.7224 82.5073 86.6849 82.4623 86.6324C82.4173 86.5799 82.3798 86.5199 82.3498 86.4524C82.3273 86.3849 82.3123 86.3099 82.3123 86.2274V85.3799H82.4998V86.2274C82.4998 86.2874 82.5073 86.3399 82.5223 86.3849C82.5373 86.4299 82.5598 86.4749 82.5973 86.5124C82.6273 86.5499 82.6648 86.5724 82.7098 86.5949C82.7548 86.6174 82.8073 86.6249 82.8673 86.6249Z" fill="#03529B"/>
<path d="M85.8524 85.3724V86.7674H85.7549C85.7399 86.7674 85.7249 86.7674 85.7174 86.7599C85.7099 86.7599 85.6949 86.7449 85.6874 86.7299L84.8774 85.6799C84.8774 85.6949 84.8774 85.7099 84.8774 85.7249C84.8774 85.7399 84.8774 85.7549 84.8774 85.7699V86.7674H84.7124V85.3724H84.8099C84.8174 85.3724 84.8249 85.3724 84.8324 85.3724C84.8399 85.3724 84.8399 85.3724 84.8474 85.3724C84.8474 85.3724 84.8549 85.3724 84.8624 85.3799C84.8624 85.3799 84.8699 85.3874 84.8774 85.3949L85.6874 86.4449C85.6874 86.4299 85.6874 86.4149 85.6874 86.3924C85.6874 86.3774 85.6874 86.3624 85.6874 86.3474V85.3574H85.8524V85.3724Z" fill="#03529B"/>
<path d="M88.3047 86.0999V86.6399C88.2372 86.6924 88.1622 86.7299 88.0797 86.7524C87.9972 86.7749 87.9147 86.7899 87.8172 86.7899C87.7197 86.7899 87.5997 86.7749 87.5097 86.7374C87.4197 86.6999 87.3447 86.6549 87.2772 86.5874C87.2097 86.5274 87.1647 86.4524 87.1272 86.3624C87.0897 86.2724 87.0747 86.1749 87.0747 86.0699C87.0747 85.9649 87.0897 85.8674 87.1272 85.7774C87.1647 85.6874 87.2097 85.6124 87.2697 85.5524C87.3297 85.4924 87.4047 85.4399 87.4947 85.4099C87.5847 85.3724 87.6822 85.3574 87.7947 85.3574C87.9072 85.3574 87.8997 85.3574 87.9522 85.3724C88.0047 85.3874 88.0422 85.3949 88.0872 85.4099C88.1247 85.4249 88.1622 85.4474 88.1997 85.4624C88.2372 85.4849 88.2672 85.5074 88.2972 85.5374L88.2447 85.6199C88.2372 85.6349 88.2222 85.6424 88.2147 85.6424C88.1997 85.6424 88.1847 85.6424 88.1697 85.6349C88.1547 85.6274 88.1397 85.6124 88.1172 85.6049C88.0947 85.5899 88.0722 85.5824 88.0422 85.5674C88.0122 85.5524 87.9822 85.5449 87.9372 85.5374C87.8997 85.5299 87.8547 85.5224 87.7947 85.5224C87.7197 85.5224 87.6447 85.5374 87.5847 85.5599C87.5247 85.5824 87.4647 85.6199 87.4197 85.6724C87.3747 85.7174 87.3372 85.7774 87.3147 85.8449C87.2922 85.9124 87.2772 85.9874 87.2772 86.0699C87.2772 86.1524 87.2922 86.2349 87.3147 86.3024C87.3372 86.3699 87.3747 86.4299 87.4197 86.4824C87.4647 86.5274 87.5247 86.5649 87.5922 86.5949C87.6597 86.6174 87.7347 86.6324 87.8172 86.6324C87.8997 86.6324 87.9372 86.6324 87.9897 86.6099C88.0422 86.5949 88.0872 86.5724 88.1397 86.5499V86.2424H87.9222C87.9072 86.2424 87.8997 86.2424 87.8922 86.2349C87.8847 86.2274 87.8847 86.2199 87.8847 86.2049V86.0999H88.3122H88.3047Z" fill="#03529B"/>
<path d="M64.0499 86.3698C64.1618 86.3698 64.2524 86.2792 64.2524 86.1673C64.2524 86.0555 64.1618 85.9648 64.0499 85.9648C63.9381 85.9648 63.8474 86.0555 63.8474 86.1673C63.8474 86.2792 63.9381 86.3698 64.0499 86.3698Z" fill="#03529B"/>
<path d="M37.7174 86.3698C37.8292 86.3698 37.9199 86.2792 37.9199 86.1673C37.9199 86.0555 37.8292 85.9648 37.7174 85.9648C37.6056 85.9648 37.5149 86.0555 37.5149 86.1673C37.5149 86.2792 37.6056 86.3698 37.7174 86.3698Z" fill="#03529B"/>
<path d="M88.2899 3.20996V69.96H76.2899V15.21H13.5674V86.76H1.56738V3.20996H88.2899Z" fill="#03529B"/>
</svg>
