<svg width="58" height="48" viewBox="0 0 58 48" fill="none" xmlns="http://www.w3.org/2000/svg">
<path d="M0 47.168V35.3516C0 31.3802 0.651042 27.2461 1.95312 22.9492C3.32031 18.5872 5.27344 14.4206 7.8125 10.4492C10.3516 6.41276 13.4115 2.92969 16.9922 0L27.2461 7.12891C24.2513 11.4258 21.9401 15.8529 20.3125 20.4102C18.6849 24.9023 17.8711 29.7852 17.8711 35.0586V47.168H0ZM30.7617 47.168V35.3516C30.7617 31.3802 31.4128 27.2461 32.7148 22.9492C34.082 18.5872 36.0352 14.4206 38.5742 10.4492C41.1133 6.41276 44.1732 2.92969 47.7539 0L58.0078 7.12891C55.013 11.4258 52.7018 15.8529 51.0742 20.4102C49.4466 24.9023 48.6328 29.7852 48.6328 35.0586V47.168H30.7617Z" fill="#F1F9F7"/>
</svg>
